<?xml version="1.0" encoding="UTF-8"?><svg id="Layer_2" xmlns="http://www.w3.org/2000/svg" xmlns:xlink="http://www.w3.org/1999/xlink" viewBox="0 0 285.7 285.7"><defs><style>.cls-1{fill:url(#linear-gradient-2);}.cls-2{fill:url(#linear-gradient-17);}.cls-3{fill:url(#linear-gradient-15);}.cls-4{fill:url(#linear-gradient-18);}.cls-5{fill:url(#linear-gradient-14);}.cls-6{fill:url(#linear-gradient-20);}.cls-7{fill:url(#linear-gradient-6);}.cls-8{fill:url(#linear-gradient-11);}.cls-9{fill:url(#linear-gradient-10);}.cls-10{fill:url(#linear-gradient-16);}.cls-11{fill:url(#linear-gradient-5);}.cls-12{fill:url(#linear-gradient-7);}.cls-13{fill:url(#linear-gradient-9);}.cls-14{fill:url(#linear-gradient-3);}.cls-15{fill:url(#linear-gradient);}.cls-16{fill:url(#linear-gradient-19);}.cls-17{fill:url(#linear-gradient-4);}.cls-18{fill:url(#linear-gradient-8);}.cls-19{fill:url(#linear-gradient-12);}.cls-20{fill:url(#linear-gradient-13);}</style><linearGradient id="linear-gradient" x1="117.91" y1="352.42" x2="305.38" y2="217.41" gradientTransform="translate(129.25 -199.49) rotate(31.06)" gradientUnits="userSpaceOnUse"><stop offset="0" stop-color="#00243f"/><stop offset="1" stop-color="#fff"/></linearGradient><linearGradient id="linear-gradient-2" x1="61.65" y1="351.63" x2="245.02" y2="219.58" xlink:href="#linear-gradient"/><linearGradient id="linear-gradient-3" x1="102.35" y1="353.3" x2="291.84" y2="216.84" xlink:href="#linear-gradient"/><linearGradient id="linear-gradient-4" x1="50.32" y1="349.55" x2="227.28" y2="222.11" xlink:href="#linear-gradient"/><linearGradient id="linear-gradient-5" x1="74.18" y1="352.91" x2="261.66" y2="217.9" xlink:href="#linear-gradient"/><linearGradient id="linear-gradient-6" x1="31.9" y1="342.59" x2="187.95" y2="230.21" xlink:href="#linear-gradient"/><linearGradient id="linear-gradient-7" x1="238.07" y1="328.27" x2="357.13" y2="242.52" xlink:href="#linear-gradient"/><linearGradient id="linear-gradient-8" x1="266.33" y1="318.76" x2="358.11" y2="252.67" xlink:href="#linear-gradient"/><linearGradient id="linear-gradient-9" x1="40.31" y1="346.6" x2="208.32" y2="225.61" xlink:href="#linear-gradient"/><linearGradient id="linear-gradient-10" x1="87.76" y1="353.46" x2="277.25" y2="217" xlink:href="#linear-gradient"/><linearGradient id="linear-gradient-11" x1="27.53" y1="302.43" x2="73.2" y2="269.54" xlink:href="#linear-gradient"/><linearGradient id="linear-gradient-12" x1="25.17" y1="336.68" x2="165.44" y2="235.66" xlink:href="#linear-gradient"/><linearGradient id="linear-gradient-13" x1="213.37" y1="335.21" x2="353.63" y2="234.19" xlink:href="#linear-gradient"/><linearGradient id="linear-gradient-14" x1="19.91" y1="318.76" x2="111.7" y2="252.67" xlink:href="#linear-gradient"/><linearGradient id="linear-gradient-15" x1="304.08" y1="302.43" x2="349.75" y2="269.54" xlink:href="#linear-gradient"/><linearGradient id="linear-gradient-16" x1="170.93" y1="344.94" x2="338.94" y2="223.95" xlink:href="#linear-gradient"/><linearGradient id="linear-gradient-17" x1="21.33" y1="328.59" x2="140.4" y2="242.85" xlink:href="#linear-gradient"/><linearGradient id="linear-gradient-18" x1="152.12" y1="348.33" x2="329.08" y2="220.89" xlink:href="#linear-gradient"/><linearGradient id="linear-gradient-19" x1="134.48" y1="350.79" x2="317.84" y2="218.74" xlink:href="#linear-gradient"/><linearGradient id="linear-gradient-20" x1="191.11" y1="340.48" x2="347.16" y2="228.1" xlink:href="#linear-gradient"/></defs><g id="Layer_1-2"><g><path class="cls-15" d="m238.69,36.91c-2.41-2.18-4.91-4.29-7.5-6.32l-146.26,242.85c3.01,1.34,6.04,2.56,9.09,3.67L238.69,36.91Z"/><path class="cls-1" d="m186.48,6.8c-3.2-1.03-6.42-1.95-9.66-2.74L36.06,237.78c2.21,2.49,4.53,4.91,6.94,7.25L186.48,6.8Z"/><path class="cls-14" d="m226.87,27.33c-2.6-1.89-5.28-3.7-8.04-5.43l-147.36,244.67c2.82,1.63,5.67,3.15,8.56,4.56L226.87,27.33Z"/><path class="cls-17" d="m171.28,2.84c-3.42-.69-6.85-1.26-10.28-1.7L26.07,225.16c1.99,2.83,4.1,5.6,6.31,8.3L171.28,2.84Z"/><path class="cls-11" d="m200.77,12.27c-3.01-1.34-6.04-2.56-9.09-3.67L47.01,248.8c2.41,2.18,4.91,4.29,7.5,6.32L200.77,12.27Z"/><path class="cls-7" d="m9.55,194.2c1.42,3.7,3,7.34,4.73,10.92L137.76.09c-3.97.15-7.93.45-11.86.93L9.55,194.2Z"/><path class="cls-12" d="m187.34,278.59c5.02-1.64,9.95-3.57,14.78-5.77l83.34-138.37c-.32-5.29-.92-10.55-1.81-15.76l-96.3,159.89Z"/><path class="cls-18" d="m283.77,166.45c1.22-7.3,1.85-14.65,1.93-21.97l-74.61,123.88c6.44-3.49,12.64-7.49,18.52-11.98l54.16-89.93Z"/><path class="cls-13" d="m155.09.51c-3.67-.31-7.34-.48-11-.51L17.16,210.76c1.74,3.22,3.6,6.39,5.59,9.48L155.09.51Z"/><path class="cls-9" d="m214.23,19.13c-2.82-1.63-5.67-3.15-8.56-4.56L58.83,258.37c2.6,1.89,5.28,3.7,8.04,5.43L214.23,19.13Z"/><path class="cls-8" d="m42.96,40.69c-8.49,8.31-16.07,17.82-22.48,28.46-6.41,10.65-11.27,21.79-14.65,33.18l37.13-61.64Z"/><path class="cls-19" d="m119.02,2.01c-4.38.74-8.72,1.69-13.01,2.84L3.63,174.82c.99,4.33,2.19,8.61,3.58,12.83L119.02,2.01Z"/><path class="cls-20" d="m282.06,110.89c-.99-4.33-2.19-8.61-3.58-12.83l-111.81,185.64c4.38-.74,8.72-1.69,13.01-2.84l102.37-169.97Z"/><path class="cls-5" d="m1.93,119.25c-1.22,7.3-1.85,14.65-1.93,21.97L74.61,17.34c-6.44,3.49-12.64,7.49-18.52,11.98L1.93,119.25Z"/><path class="cls-3" d="m242.73,245.01c8.49-8.31,16.07-17.82,22.48-28.46,6.41-10.65,11.27-21.79,14.65-33.18l-37.13,61.64Z"/><path class="cls-10" d="m268.54,74.95c-1.74-3.22-3.6-6.39-5.59-9.48l-132.34,219.73c3.67.31,7.34.48,11,.51l126.93-210.76Z"/><path class="cls-2" d="m98.36,7.11c-5.02,1.64-9.95,3.57-14.78,5.77L.25,151.25c.32,5.29.92,10.55,1.81,15.76L98.36,7.11Z"/><path class="cls-4" d="m259.63,60.54c-1.99-2.83-4.1-5.6-6.31-8.3l-138.9,230.62c3.42.69,6.85,1.26,10.28,1.7L259.63,60.54Z"/><path class="cls-16" d="m249.64,47.92c-2.21-2.49-4.53-4.91-6.94-7.25l-143.48,238.23c3.2,1.03,6.42,1.95,9.66,2.74L249.64,47.92Z"/><path class="cls-6" d="m276.15,91.51c-1.42-3.7-3-7.34-4.73-10.92l-123.48,205.02c3.97-.15,7.93-.45,11.86-.93l116.35-193.18Z"/></g></g></svg>