<?xml version="1.0" encoding="UTF-8"?><svg id="Layer_2" xmlns="http://www.w3.org/2000/svg" xmlns:xlink="http://www.w3.org/1999/xlink" viewBox="0 0 1367.64 755.18"><defs><style>.cls-1{fill:url(#linear-gradient);}</style><linearGradient id="linear-gradient" x1="-130.75" y1="945.56" x2="1399.85" y2="-156.71" gradientUnits="userSpaceOnUse"><stop offset="0" stop-color="#00d380"/><stop offset=".38" stop-color="#00a89a"/><stop offset=".79" stop-color="#0080b2"/><stop offset="1" stop-color="#0071bc"/></linearGradient></defs><g id="Layer_1-2"><path class="cls-1" d="m124.59,705.62c31.55-.32,63.17,5.67,92.54,17.17,14.43,5.65,27.61,13.04,41.04,20.66,26.21,14.88,39.48-6.2,62.28-17.94,30.75-15.84,65.54-24.29,100.12-24.33,39.43-.05,79.54,12.23,114.16,32.9,23.46,14.01,25.27,23.01,48.97,7.73,16.89-10.89,34.96-19.56,54.13-25.67,72.92-23.23,158.26-10.33,217.72,39.03,40.29-33.44,92.91-50.17,144.96-50.14,26.29.02,52.63,4.24,77.53,12.79,19.99,6.93,36.13,24.37,56.32,30.61,27.71,8.57,50.26-20.82,77.36-31.18,26.09-9.98,53.78-14.65,81.69-14.21,25.25.4,50.55,4.94,74.23,13.66V240.49c-41.78-89.17-95.28-114.94-343.62-119.61-260.16-4.9-281.25-41.25-333.16-120.88H1.64c0,6.67-3.07,620.47-.81,746.24,35.18-26.38,79-40.16,123.76-40.62Z"/></g></svg>